<svg width="872" height="872" viewBox="0 0 872 872" fill="none" xmlns="http://www.w3.org/2000/svg">
    <path d="M110 250L435 59L762.5 250V592L435 785L110 592V250Z" fill="#12A489" />
    <path d="M436.127 116.179C460.753 116.179 480.716 96.216 480.716 71.5897C480.716 46.9635 460.753 27 436.127 27C411.5 27 391.537 46.9635 391.537 71.5897C391.537 96.216 411.5 116.179 436.127 116.179Z" fill="#E5E5E5" stroke="#E5E5E5" stroke-width="54" stroke-miterlimit="1.45" />
    <path d="M107.59 302.029C132.216 302.029 152.179 282.066 152.179 257.439C152.179 232.813 132.216 212.85 107.59 212.85C82.9635 212.85 63 232.813 63 257.439C63 282.066 82.9635 302.029 107.59 302.029Z" fill="#E5E5E5" stroke="#E5E5E5" stroke-width="54" stroke-miterlimit="1.45" />
    <path d="M764.664 302.029C789.29 302.029 809.254 282.066 809.254 257.439C809.254 232.813 789.29 212.85 764.664 212.85C740.038 212.85 720.074 232.813 720.074 257.439C720.074 282.066 740.038 302.029 764.664 302.029Z" fill="#E5E5E5" stroke="#E5E5E5" stroke-width="54" stroke-miterlimit="1.45" />
    <path d="M107.59 658.705C132.216 658.705 152.179 638.741 152.179 614.115C152.179 589.489 132.216 569.525 107.59 569.525C82.9635 569.525 63 589.489 63 614.115C63 638.741 82.9635 658.705 107.59 658.705Z" fill="#E5E5E5" stroke="#E5E5E5" stroke-width="54" stroke-miterlimit="1.45" />
    <path d="M764.664 658.705C789.29 658.705 809.254 638.741 809.254 614.115C809.254 589.489 789.29 569.525 764.664 569.525C740.038 569.525 720.074 589.489 720.074 614.115C720.074 638.741 740.038 658.705 764.664 658.705Z" fill="#E5E5E5" stroke="#E5E5E5" stroke-width="54" stroke-miterlimit="1.45" />
    <path d="M436.127 480.367C460.753 480.367 480.716 460.403 480.716 435.777C480.716 411.151 460.753 391.188 436.127 391.188C411.5 391.188 391.537 411.151 391.537 435.777C391.537 460.403 411.5 480.367 436.127 480.367Z" fill="#E5E5E5" stroke="#E5E5E5" stroke-width="54" stroke-miterlimit="1.45" />
    <path d="M436.127 844.554C460.753 844.554 480.716 824.591 480.716 799.965C480.716 775.339 460.753 755.375 436.127 755.375C411.5 755.375 391.537 775.339 391.537 799.965C391.537 824.591 411.5 844.554 436.127 844.554Z" fill="#E5E5E5" stroke="#E5E5E5" stroke-width="54" stroke-miterlimit="1.45" />
    <mask id="path-9-outside-1" maskUnits="userSpaceOnUse" x="126.4" y="59.5449" width="291" height="210" fill="black">
        <rect fill="white" x="126.4" y="59.5449" width="291" height="210" />
        <path d="M146.4 235.485L397.317 93.5449Z" />
    </mask>
    <path d="M165.602 269.43L416.519 127.49L378.114 59.5998L127.198 201.54L165.602 269.43Z" fill="#E5E5E5" mask="url(#path-9-outside-1)" />
    <mask id="path-11-outside-2" maskUnits="userSpaceOnUse" x="454.937" y="59.5449" width="291" height="210" fill="black">
        <rect fill="white" x="454.937" y="59.5449" width="291" height="210" />
        <path d="M474.937 93.5449L725.854 235.485Z" />
    </mask>
    <path d="M455.735 127.49L706.652 269.43L745.056 201.54L494.14 59.5998L455.735 127.49Z" fill="#E5E5E5" mask="url(#path-11-outside-2)" />
    <mask id="path-13-outside-3" maskUnits="userSpaceOnUse" x="68.5901" y="302.029" width="78" height="268" fill="black">
        <rect fill="white" x="68.5901" y="302.029" width="78" height="268" />
        <path d="M107.59 569.525V302.029Z" />
    </mask>
    <path d="M146.59 569.525V302.029H68.5901V569.525H146.59Z" fill="#E5E5E5" mask="url(#path-13-outside-3)" />
    <mask id="path-15-outside-4" maskUnits="userSpaceOnUse" x="725.664" y="302.029" width="78" height="268" fill="black">
        <rect fill="white" x="725.664" y="302.029" width="78" height="268" />
        <path d="M764.664 302.029V569.525Z" />
    </mask>
    <path d="M725.664 302.029V569.525H803.664V302.029H725.664Z" fill="#E5E5E5" mask="url(#path-15-outside-4)" />
    <mask id="path-17-outside-5" maskUnits="userSpaceOnUse" x="405.127" y="116.18" width="62" height="276" fill="black">
        <rect fill="white" x="405.127" y="116.18" width="62" height="276" />
        <path d="M436.127 391.188V116.18Z" />
    </mask>
    <path d="M467.127 391.188V116.18H405.127V391.188H467.127Z" fill="#E5E5E5" mask="url(#path-17-outside-5)" />
    <mask id="path-19-outside-6" maskUnits="userSpaceOnUse" x="131.778" y="250.712" width="280" height="192" fill="black">
        <rect fill="white" x="131.778" y="250.712" width="280" height="192" />
        <path d="M396.938 414.505L146.778 278.712Z" />
    </mask>
    <path d="M411.727 387.26L161.567 251.467L131.989 305.957L382.149 441.75L411.727 387.26Z" fill="#E5E5E5" mask="url(#path-19-outside-6)" />
    <mask id="path-21-outside-7" maskUnits="userSpaceOnUse" x="131.778" y="429.05" width="280" height="192" fill="black">
        <rect fill="white" x="131.778" y="429.05" width="280" height="192" />
        <path d="M396.938 457.05L146.778 592.843Z" />
    </mask>
    <path d="M382.149 429.805L131.989 565.598L161.567 620.088L411.727 484.295L382.149 429.805Z" fill="#E5E5E5" mask="url(#path-21-outside-7)" />
    <mask id="path-23-outside-8" maskUnits="userSpaceOnUse" x="460.315" y="429.05" width="280" height="192" fill="black">
        <rect fill="white" x="460.315" y="429.05" width="280" height="192" />
        <path d="M475.315 457.05L725.476 592.843Z" />
    </mask>
    <path d="M460.526 484.295L710.687 620.088L740.265 565.598L490.104 429.805L460.526 484.295Z" fill="#E5E5E5" mask="url(#path-23-outside-8)" />
    <mask id="path-25-outside-9" maskUnits="userSpaceOnUse" x="460.315" y="250.712" width="280" height="192" fill="black">
        <rect fill="white" x="460.315" y="250.712" width="280" height="192" />
        <path d="M475.315 414.505L725.476 278.712Z" />
    </mask>
    <path d="M490.104 441.75L740.265 305.957L710.687 251.467L460.526 387.26L490.104 441.75Z" fill="#E5E5E5" mask="url(#path-25-outside-9)" />
    <mask id="path-27-outside-10" maskUnits="userSpaceOnUse" x="454.937" y="602.07" width="291" height="210" fill="black">
        <rect fill="white" x="454.937" y="602.07" width="291" height="210" />
        <path d="M725.854 636.07L474.937 778.011Z" />
    </mask>
    <path d="M706.652 602.125L455.735 744.066L494.14 811.956L745.056 670.015L706.652 602.125Z" fill="#E5E5E5" mask="url(#path-27-outside-10)" />
    <mask id="path-29-outside-11" maskUnits="userSpaceOnUse" x="405.127" y="480.367" width="62" height="276" fill="black">
        <rect fill="white" x="405.127" y="480.367" width="62" height="276" />
        <path d="M436.127 480.367V755.375Z" />
    </mask>
    <path d="M405.127 480.367V755.375H467.127V480.367H405.127Z" fill="#E5E5E5" mask="url(#path-29-outside-11)" />
    <mask id="path-31-outside-12" maskUnits="userSpaceOnUse" x="126.4" y="602.07" width="291" height="210" fill="black">
        <rect fill="white" x="126.4" y="602.07" width="291" height="210" />
        <path d="M397.317 778.011L146.4 636.07Z" />
    </mask>
    <path d="M416.519 744.066L165.603 602.125L127.198 670.015L378.114 811.956L416.519 744.066Z" fill="#E5E5E5" mask="url(#path-31-outside-12)" />
    <path d="M436.127 116.179C460.753 116.179 480.716 96.216 480.716 71.5897C480.716 46.9635 460.753 27 436.127 27C411.5 27 391.537 46.9635 391.537 71.5897C391.537 96.216 411.5 116.179 436.127 116.179Z" fill="#211919" stroke="#211919" stroke-width="5.9453" stroke-miterlimit="1.45" />
    <path d="M107.59 302.029C132.216 302.029 152.179 282.066 152.179 257.439C152.179 232.813 132.216 212.85 107.59 212.85C82.9635 212.85 63 232.813 63 257.439C63 282.066 82.9635 302.029 107.59 302.029Z" fill="#211919" stroke="#211919" stroke-width="5.9453" stroke-miterlimit="1.45" />
    <path d="M764.664 302.029C789.29 302.029 809.254 282.066 809.254 257.439C809.254 232.813 789.29 212.85 764.664 212.85C740.038 212.85 720.074 232.813 720.074 257.439C720.074 282.066 740.038 302.029 764.664 302.029Z" fill="#211919" stroke="#211919" stroke-width="5.9453" stroke-miterlimit="1.45" />
    <path d="M107.59 658.705C132.216 658.705 152.179 638.741 152.179 614.115C152.179 589.489 132.216 569.525 107.59 569.525C82.9635 569.525 63 589.489 63 614.115C63 638.741 82.9635 658.705 107.59 658.705Z" fill="#211919" stroke="#211919" stroke-width="5.9453" stroke-miterlimit="1.45" />
    <path d="M764.664 658.705C789.29 658.705 809.254 638.741 809.254 614.115C809.254 589.489 789.29 569.525 764.664 569.525C740.038 569.525 720.074 589.489 720.074 614.115C720.074 638.741 740.038 658.705 764.664 658.705Z" fill="#211919" stroke="#211919" stroke-width="5.9453" stroke-miterlimit="1.45" />
    <path d="M436.127 480.367C460.753 480.367 480.716 460.403 480.716 435.777C480.716 411.151 460.753 391.188 436.127 391.188C411.5 391.188 391.537 411.151 391.537 435.777C391.537 460.403 411.5 480.367 436.127 480.367Z" fill="#211919" stroke="#211919" stroke-width="5.9453" stroke-miterlimit="1.45" />
    <path d="M436.127 844.554C460.753 844.554 480.716 824.591 480.716 799.965C480.716 775.339 460.753 755.375 436.127 755.375C411.5 755.375 391.537 775.339 391.537 799.965C391.537 824.591 411.5 844.554 436.127 844.554Z" fill="#211919" stroke="#211919" stroke-width="5.9453" stroke-miterlimit="1.45" />
    <path d="M146.4 235.485L397.317 93.5449" stroke="#211919" stroke-width="30" stroke-miterlimit="1.45" />
    <path d="M474.937 93.5449L725.854 235.485" stroke="#211919" stroke-width="30" stroke-miterlimit="1.45" />
    <path d="M107.59 569.525V302.029" stroke="#211919" stroke-width="30" stroke-miterlimit="1.45" />
    <path d="M764.664 302.029V569.525" stroke="#211919" stroke-width="30" stroke-miterlimit="1.45" />
    <path d="M436.127 391.188V116.18" stroke="#211919" stroke-width="30" stroke-miterlimit="1.45" />
    <path d="M396.938 414.505L146.778 278.712" stroke="#211919" stroke-width="30" stroke-miterlimit="1.45" />
    <path d="M396.938 457.05L146.778 592.843" stroke="#211919" stroke-width="30" stroke-miterlimit="1.45" />
    <path d="M475.315 457.05L725.476 592.843" stroke="#211919" stroke-width="30" stroke-miterlimit="1.45" />
    <path d="M475.315 414.505L725.476 278.712" stroke="#211919" stroke-width="30" stroke-miterlimit="1.45" />
    <path d="M725.854 636.07L474.937 778.011" stroke="#211919" stroke-width="30" stroke-miterlimit="1.45" />
    <path d="M436.127 480.367V755.375" stroke="#211919" stroke-width="30" stroke-miterlimit="1.45" />
    <path d="M397.317 778.011L146.4 636.07" stroke="#211919" stroke-width="30" stroke-miterlimit="1.45" />
</svg>
    