<?xml version="1.0" encoding="UTF-8"?><svg xmlns="http://www.w3.org/2000/svg" xmlns:xlink="http://www.w3.org/1999/xlink" fill-opacity="1" color-rendering="auto" color-interpolation="auto" text-rendering="auto" stroke="black" stroke-linecap="square" width="815" stroke-miterlimit="10" shape-rendering="auto" stroke-opacity="1" fill="black" stroke-dasharray="none" font-weight="normal" stroke-width="1" height="829" font-family="'Dialog'" font-style="normal" stroke-linejoin="miter" font-size="12px" stroke-dashoffset="0" image-rendering="auto">
  <!--Generated by ySVG 2.5-->
  <defs id="genericDefs"/>
  <g>
    <defs id="defs1">
      <clipPath clipPathUnits="userSpaceOnUse" id="clipPath1">
        <path d="M0 0 L815 0 L815 829 L0 829 L0 0 Z"/>
      </clipPath>
      <clipPath clipPathUnits="userSpaceOnUse" id="clipPath2">
        <path d="M677 76 L814.0825 76 L814.0825 215.4373 L677 215.4373 L677 76 Z"/>
      </clipPath>
    </defs>
    <g text-rendering="geometricPrecision" shape-rendering="geometricPrecision" transform="matrix(5.9453,0,0,5.9453,-4024.9835,-451.8445)">
      <circle r="7.5" clip-path="url(#clipPath2)" cx="747.8832" cy="84.4312" stroke="none"/>
    </g>
    <g text-rendering="geometricPrecision" stroke-miterlimit="1.45" shape-rendering="geometricPrecision" transform="matrix(5.9453,0,0,5.9453,-4024.9835,-451.8445)" stroke-linecap="butt">
      <circle fill="none" r="7.5" clip-path="url(#clipPath2)" cx="747.8832" cy="84.4312"/>
      <circle stroke-linecap="square" clip-path="url(#clipPath2)" r="7.5" cx="692.6232" cy="115.6912" stroke="none" stroke-miterlimit="10"/>
      <circle fill="none" r="7.5" clip-path="url(#clipPath2)" cx="692.6232" cy="115.6912"/>
      <circle stroke-linecap="square" clip-path="url(#clipPath2)" r="7.5" cx="803.1432" cy="115.6912" stroke="none" stroke-miterlimit="10"/>
      <circle fill="none" r="7.5" clip-path="url(#clipPath2)" cx="803.1432" cy="115.6912"/>
      <circle stroke-linecap="square" clip-path="url(#clipPath2)" r="7.5" cx="692.6232" cy="175.684" stroke="none" stroke-miterlimit="10"/>
      <circle fill="none" r="7.5" clip-path="url(#clipPath2)" cx="692.6232" cy="175.684"/>
      <circle stroke-linecap="square" clip-path="url(#clipPath2)" r="7.5" cx="803.1432" cy="175.684" stroke="none" stroke-miterlimit="10"/>
      <circle fill="none" r="7.5" clip-path="url(#clipPath2)" cx="803.1432" cy="175.684"/>
      <circle stroke-linecap="square" clip-path="url(#clipPath2)" r="7.5" cx="747.8832" cy="145.6876" stroke="none" stroke-miterlimit="10"/>
      <circle fill="none" r="7.5" clip-path="url(#clipPath2)" cx="747.8832" cy="145.6876"/>
      <circle stroke-linecap="square" clip-path="url(#clipPath2)" r="7.5" cx="747.8832" cy="206.944" stroke="none" stroke-miterlimit="10"/>
      <circle fill="none" r="7.5" clip-path="url(#clipPath2)" cx="747.8832" cy="206.944"/>
      <path fill="none" d="M699.1511 111.9984 L741.3553 88.124" stroke-width="3" clip-path="url(#clipPath2)"/>
      <path fill="none" d="M754.4111 88.124 L796.6153 111.9984" stroke-width="3" clip-path="url(#clipPath2)"/>
      <path fill="none" d="M692.6232 168.184 L692.6232 123.1912" stroke-width="3" clip-path="url(#clipPath2)"/>
      <path fill="none" d="M803.1432 123.1912 L803.1432 168.184" stroke-width="3" clip-path="url(#clipPath2)"/>
      <path fill="none" d="M747.8832 138.1876 L747.8832 91.9312" stroke-width="3" clip-path="url(#clipPath2)"/>
      <path fill="none" d="M741.2917 142.1096 L699.2147 119.2692" stroke-width="3" clip-path="url(#clipPath2)"/>
      <path fill="none" d="M741.2917 149.2656 L699.2147 172.106" stroke-width="3" clip-path="url(#clipPath2)"/>
      <path fill="none" d="M754.4747 149.2656 L796.5517 172.106" stroke-width="3" clip-path="url(#clipPath2)"/>
      <path fill="none" d="M754.4747 142.1096 L796.5517 119.2692" stroke-width="3" clip-path="url(#clipPath2)"/>
      <path fill="none" d="M796.6153 179.3768 L754.4111 203.2513" stroke-width="3" clip-path="url(#clipPath2)"/>
      <path fill="none" d="M747.8832 153.1876 L747.8832 199.444" stroke-width="3" clip-path="url(#clipPath2)"/>
      <path fill="none" d="M741.3553 203.2513 L699.1511 179.3768" stroke-width="3" clip-path="url(#clipPath2)"/>
    </g>
  </g>
</svg>
